<svg width="300" height="300" viewBox="0 0 300 300" fill="none" xmlns="http://www.w3.org/2000/svg">
<path d="M25 100V200C25 204.738 27.675 209.063 31.9125 211.188C33.675 212.063 35.6 212.5 37.5 212.5C40.15 212.5 42.8 211.662 45 210L86.45 178.912L62.5 275L209.375 225.9C252.338 212.888 275 150 275 150C275 150 252.338 89 209.375 74.5375L62.2625 25L86.35 121.012L45 90C41.2125 87.1625 36.15 86.7 31.9125 88.8125C27.675 90.9375 25 95.2625 25 100Z" fill="#FF8F00"/>
<path opacity="0.4" d="M86.375 121L62.25 25L150 54.5V69.25L97.625 63.25L119.5 150.75L97.7625 236.875L150 230.875V245.762L62.5 275L86.5 178.875L86.375 121ZM200 229L168.75 239.5V228.75L200 225.125V229ZM200 75L168.75 71.375V60.875L200 71.375V75Z" fill="white"/>
<path opacity="0.3" d="M231.25 143.75C231.25 150.65 236.85 156.25 243.75 156.25C250.65 156.25 256.25 150.65 256.25 143.75C256.25 136.85 250.65 131.25 243.75 131.25C236.85 131.25 231.25 136.85 231.25 143.75ZM200 75.0001V71.3751L209.375 74.5376C212.625 75.6251 215.738 77.0126 218.75 78.5876V222.113C215.738 223.613 212.625 224.913 209.375 225.9L200 229.038V229V225.125V75.0001ZM150 230.875V69.2501V54.5376L168.75 60.8501V60.8751V71.3751V228.75V239.488L150 245.75V230.875ZM86.375 121.15L86.5 178.713L86.45 178.913L62.5 196.875V103.125L86.35 121.013L86.375 121.15Z" fill="black"/>
</svg>
