<svg width="300" height="300" viewBox="0 0 300 300" fill="none" xmlns="http://www.w3.org/2000/svg">
<path d="M31.625 114C35.6125 111.75 40.625 112 44.375 114.625L62.5 126.625L68.75 131.375C74.125 128.875 80.875 126.375 87.5 123.875V100C87.5 93.125 93.125 87.5 100 87.5C113.125 87.5 123 91.25 129 98.5C131.862 101.5 133.875 105.25 135.25 109.5C160.375 104 190.125 100 225 100C248.5 100 271.875 116.5 274.75 118.5C274.875 118.625 275 118.75 275 118.75L250 150L270 170C259.875 187.375 237.5 187.5 237.5 187.5H212.5V200C212.5 205 209.5 209.625 204.75 211.5C203.25 212.25 201.625 212.5 200 212.5C196.75 212.5 193.5 211.25 191.125 208.875L169.875 187.5H162.5C153.25 187.5 144.25 186.75 135.375 185.5C130.75 202.375 118.125 212.5 100 212.5C93.125 212.5 87.5 206.875 87.5 200C87.5 200 87.625 174 87.75 173.5L68.75 168.75L44.375 185.375C42.375 186.75 39.875 187.5 37.5 187.5C35.5 187.5 33.5 187 31.625 186C27.5 183.875 25 179.625 25 175V125C25 120.375 27.5 116.125 31.625 114Z" fill="#66BB6A"/>
<path opacity="0.2" d="M68.75 131.375V150H250L275 118.75C275 118.75 274.875 118.625 274.75 118.5C271.875 116.5 248.5 100 225 100C190.125 100 160.375 104 135.25 109.5C116.75 113.625 100.75 118.75 87.5 123.875C80.875 126.375 74.125 128.875 68.75 131.375Z" fill="black"/>
<path opacity="0.3" d="M221.875 118.75C221.875 123.925 226.075 128.125 231.25 128.125C236.425 128.125 240.625 123.925 240.625 118.75C240.625 113.575 236.425 109.375 231.25 109.375C226.075 109.375 221.875 113.575 221.875 118.75ZM87.7375 173.563C87.675 174.05 87.525 174.5 87.525 175V200C87.525 206.912 93.1125 212.5 100.025 212.5C118.15 212.5 130.762 202.4 135.425 185.487C118.012 183.037 101.8 178.55 87.7375 173.563ZM169.825 187.5L191.163 208.838C193.55 211.225 196.75 212.5 200 212.5C201.612 212.5 203.237 212.2 204.787 211.55C209.45 209.625 212.5 205.05 212.5 200V187.5H169.825ZM25 125V175C25 179.612 27.5375 183.85 31.6 186.025C33.45 187.012 35.475 187.5 37.5 187.5C39.925 187.5 42.35 186.787 44.4375 185.4L68.75 168.75V131.375L44.4375 114.6C40.6 112.038 35.6625 111.8 31.6125 113.975C27.5375 116.15 25 120.388 25 125ZM100 87.5C118.75 87.5 130.625 95.125 135.25 109.5C116.75 113.625 100.75 118.75 87.5 123.875V100C87.5 93.125 93.125 87.5 100 87.5Z" fill="black"/>
</svg>
