<svg width="300" height="300" viewBox="0 0 300 300" fill="none" xmlns="http://www.w3.org/2000/svg">
<path d="M99.1875 152.425L75 225L146.987 201C165 204.3 187.5 215.288 187.5 250C187.5 250 258.337 209.9 275 275V187.5C228.85 187.5 201.687 173.313 187.575 162.388L212.5 125H187.5L175 112.5V87.5L137.612 112.425C126.687 98.3125 112.5 71.15 112.5 25H25C90.625 40.625 50 112.5 50 112.5C84.9625 112.5 95.9625 134.525 99.1875 152.425Z" fill="#616161"/>
<path opacity="0.3" d="M99.1875 152.425L75 225L146.987 201C163.912 195.3 178.437 176.875 187.575 162.388L212.5 125H187.5L175 112.5V87.5L137.612 112.425C124.687 119.375 108.437 132.813 99.1875 152.425Z" fill="black"/>
</svg>
