<svg width="300" height="300" viewBox="0 0 300 300" fill="none" xmlns="http://www.w3.org/2000/svg">
<path d="M27.3375 272.663C27.3375 272.663 136.488 247.763 140.138 246.575L140.375 246.525L140.363 246.5C163.138 238.963 180.462 219.788 185.7 196.075L188.175 206.75C191.362 224.213 206.6 237.5 225 237.5C245.712 237.5 262.5 220.713 262.5 200C262.5 183.1 251.237 168.975 235.862 164.288L180.5 151.288C180.15 150.563 179.875 149.8 179.5 149.1C182.087 149.663 184.75 150 187.5 150C203.8 150 223.7 137.663 224.8 114.425C243.8 96.55 260.15 93.75 275 93.75V75C259.1 75 240.5 77.7375 219.9 93.9375C217.325 89.45 213.9 85.55 209.75 82.475C224.938 64.7 225 39.3625 225 25.5L206.25 25V25.5C206.25 44.1625 204.813 64.5 189.988 75.25C189.15 75.2 188.35 75 187.5 75C166.788 75 150 91.7875 150 112.5C150 115.25 150.337 117.913 150.9 120.5C150.187 120.125 149.425 119.85 148.713 119.5L135.7 64.0875C131 48.7375 116.887 37.5 100 37.5C79.2875 37.5 62.5 54.2875 62.5 75C62.5 92.4625 74.4875 107 90.6375 111.175L103.988 114.288C78.8125 119.838 58.7875 139.038 52.3 163.863L27.3375 272.663Z" fill="#FBC02D"/>
<path opacity="0.5" d="M75 261.75L38.2625 225.013L33.3125 246.575L53.425 266.688C60.025 265.188 67.4 263.488 75 261.75ZM104.262 255.013L44.9875 195.738L49.9375 174.175L125.775 250.013C119.775 251.425 112.4 253.138 104.262 255.013ZM152.612 240.863L59.2125 147.463C62.3625 141.925 66.1875 136.875 70.6875 132.425L167.7 229.438C163.25 233.925 158.137 237.713 152.612 240.863ZM189.987 75.25C204.812 64.5 206.25 44.175 206.25 25.5V25L225 25.5C225 39.375 224.937 64.7 209.75 82.475C204.15 78.3125 197.375 75.75 189.987 75.25ZM225 112.5C225 105.713 223.05 99.425 219.9 93.9375C240.5 77.7375 259.1 75 275 75V93.75C260.15 93.75 243.8 96.55 224.8 114.425C224.825 113.763 225 113.188 225 112.5Z" fill="black"/>
<path opacity="0.4" d="M188.175 206.725C191.362 224.213 206.6 237.5 225 237.5C245.712 237.5 262.5 220.713 262.5 200C262.5 183.1 251.237 168.975 235.862 164.288L175 150L188.175 206.725ZM62.5 75C62.5 54.2875 79.2875 37.5 100 37.5C116.887 37.5 131 48.7375 135.7 64.0875L150 125L90.6375 111.175C74.4875 107 62.5 92.4625 62.5 75Z" fill="white"/>
</svg>
