<svg width="300" height="300" viewBox="0 0 300 300" fill="none" xmlns="http://www.w3.org/2000/svg">
<path d="M12.5 262.5C12.5 269.412 18.0875 275 25 275H75C81.9125 275 87.5 269.412 87.5 262.5C87.5 246.225 77.0125 232.475 62.5 227.3V225C62.5 204.325 79.325 187.5 100 187.5C118.925 187.5 137.062 187.5 137.5 187.5C153.087 187.5 170.375 187.187 187.5 184.537V225C206.15 225 223.7 204.425 224.787 173.837C258.725 158.237 285.588 124.9 287.088 53.7125C287.138 51.6125 287.5 44.9625 287.5 43.75C287.5 33.4 279.1 25 268.75 25C265.5 25 262.475 25.9 259.813 27.3625C258.85 27.8875 67.95 154.963 67.95 154.963C37.2125 173.788 36.1625 194.463 36.9875 227.463C22.725 232.788 12.5 246.413 12.5 262.5Z" fill="#0097A7"/>
<path opacity="0.4" d="M103.9 187.5C122.825 187.5 137.062 187.5 137.5 187.5C153.087 187.5 170.375 187.187 187.5 184.537C187.5 184.537 210.162 180.462 224.787 173.837C258.512 158.337 285.325 126.45 287.087 53.7124L103.9 187.5Z" fill="white"/>
<path opacity="0.3" d="M224.787 173.838C210.15 180.475 187.5 184.538 187.5 184.538V225C206.15 225 223.7 204.425 224.787 173.838ZM283.625 32.4502C286.025 35.6002 287.5 39.4877 287.5 43.7502C287.5 44.9627 287.362 46.1377 287.137 47.2877C287.137 47.3002 287.15 47.3127 287.15 47.3252C287.15 49.4377 287.125 51.6627 287.088 53.7127L231.587 94.0127L220.475 78.9127L283.625 32.4502ZM12.5 262.5C12.5 269.413 18.0875 275 25 275H75C81.9125 275 87.5 269.413 87.5 262.5C87.5 246.225 77.0125 232.475 62.5 227.3L36.975 227.463C22.725 232.788 12.5 246.413 12.5 262.5Z" fill="black"/>
</svg>
