<svg width="300" height="300" viewBox="0 0 300 300" fill="none" xmlns="http://www.w3.org/2000/svg">
<path d="M25 156.25C25 173.513 38.9875 187.5 56.25 187.5C57.475 187.5 62.75 186.75 63.525 186.563L97.5625 180.163C80.1375 200.763 70.9375 216.525 77.6125 222.738C84.225 228.9 99.6125 219.95 119.7 202.888L113.125 237.5C112.712 239.525 112.5 241.613 112.5 243.75C112.5 261.013 126.487 275 143.75 275C161.012 275 175 261.013 175 243.75C175 240.2 174.275 236.838 173.187 233.65L160.962 195.988C160.962 195.988 190.4 223.413 191.062 224.013L193.987 226.425C202.537 233.25 213.212 237.5 225 237.5C252.612 237.5 275 215.113 275 187.5C275 159.888 252.612 137.5 225 137.5H186.662C213.725 108.438 230.862 85.1625 222.387 77.2625C213.937 69.3875 191.162 86.1875 162.5 113.113V75C162.5 47.3875 140.112 25 112.5 25C84.8875 25 62.5 47.3875 62.5 75C62.5 89.475 68.7375 102.4 78.5625 111.525L114.237 142.438C114.237 142.438 64.7125 126.075 62.5 125.625H62.4875C62.4875 125.625 58.375 125 56.2375 125C38.9875 125 25 138.988 25 156.25Z" fill="#F9A825"/>
<path opacity="0.3" d="M137.5 137.5C97.525 177.675 66.8125 212.675 77.6125 222.737C88.4125 232.8 122.525 202.675 162.5 162.5C202.475 122.325 233.187 87.325 222.387 77.2625C211.587 67.2 177.475 97.325 137.5 137.5Z" fill="black"/>
</svg>
