<svg width="70" height="150" viewBox="0 0 70 150" fill="none" xmlns="http://www.w3.org/2000/svg">
<rect width="70" height="150" fill="#4B9CB2"/>
<rect x="8" y="130" width="5" height="12" fill="#D9D9D9"/>
<rect x="18" y="130" width="5" height="12" fill="#D9D9D9"/>
<rect x="28" y="130" width="5" height="12" fill="#D9D9D9"/>
<rect x="38" y="130" width="5" height="12" fill="#D9D9D9"/>
<rect x="48" y="130" width="5" height="12" fill="#D9D9D9"/>
<rect x="58" y="130" width="5" height="12" fill="#D9D9D9"/>
<rect x="8" y="5" width="5" height="12" fill="#D9D9D9"/>
<rect x="18" y="5" width="5" height="12" fill="#D9D9D9"/>
<rect x="28" y="5" width="5" height="12" fill="#D9D9D9"/>
<rect x="38" y="5" width="5" height="12" fill="#FFF101"/>
<rect x="48" y="5" width="5" height="12" fill="#D9D9D9"/>
<rect x="58" y="5" width="5" height="12" fill="#D9D9D9"/>
<rect x="8" y="109" width="5" height="12" fill="#FFF101"/>
<rect x="18" y="109" width="5" height="12" fill="#D9D9D9"/>
<rect x="28" y="109" width="5" height="12" fill="#D9D9D9"/>
<rect x="38" y="109" width="5" height="12" fill="#D9D9D9"/>
<rect x="48" y="109" width="5" height="12" fill="#D9D9D9"/>
<rect x="58" y="109" width="5" height="12" fill="#D9D9D9"/>
<rect x="8" y="89" width="5" height="12" fill="#D9D9D9"/>
<rect x="18" y="89" width="5" height="12" fill="#D9D9D9"/>
<rect x="28" y="89" width="5" height="12" fill="#D9D9D9"/>
<rect x="38" y="89" width="5" height="12" fill="#D9D9D9"/>
<rect x="48" y="89" width="5" height="12" fill="#D9D9D9"/>
<rect x="58" y="89" width="5" height="12" fill="#D9D9D9"/>
<rect x="8" y="67" width="5" height="12" fill="#D9D9D9"/>
<rect x="18" y="67" width="5" height="12" fill="#D9D9D9"/>
<rect x="28" y="67" width="5" height="12" fill="#D9D9D9"/>
<rect x="38" y="67" width="5" height="12" fill="#D9D9D9"/>
<rect x="48" y="67" width="5" height="12" fill="#FFF101"/>
<rect x="58" y="67" width="5" height="12" fill="#D9D9D9"/>
<rect x="8" y="45" width="5" height="12" fill="#D9D9D9"/>
<rect x="18" y="45" width="5" height="12" fill="#D9D9D9"/>
<rect x="28" y="45" width="5" height="12" fill="#D9D9D9"/>
<rect x="38" y="45" width="5" height="12" fill="#D9D9D9"/>
<rect x="48" y="45" width="5" height="12" fill="#D9D9D9"/>
<rect x="58" y="45" width="5" height="12" fill="#D9D9D9"/>
<rect x="8" y="25" width="5" height="12" fill="#D9D9D9"/>
<rect x="18" y="25" width="5" height="12" fill="#D9D9D9"/>
<rect x="28" y="25" width="5" height="12" fill="#FFF101"/>
<rect x="38" y="25" width="5" height="12" fill="#D9D9D9"/>
<rect x="48" y="25" width="5" height="12" fill="#D9D9D9"/>
<rect x="58" y="25" width="5" height="12" fill="#D9D9D9"/>
</svg>
