<svg width="70" height="150" viewBox="0 0 70 150" fill="none" xmlns="http://www.w3.org/2000/svg">
<rect x="2.5" y="2.5" width="65" height="145" fill="#C58C4E"/>
<rect x="2.5" y="2.5" width="65" height="145" stroke="#FFD964" stroke-width="5"/>
<path d="M28.5455 102.455C27.3939 102.591 26.5 103.144 25.8636 104.114C25.2273 105.083 24.9091 106.273 24.9091 107.682C24.9091 108.712 25.0758 109.614 25.4091 110.386C25.7424 111.152 26.2008 111.75 26.7841 112.182C27.3674 112.606 28.0303 112.818 28.7727 112.818C29.3939 112.818 29.928 112.67 30.375 112.375C30.8144 112.072 31.1818 111.686 31.4773 111.216C31.7652 110.746 32.0038 110.254 32.1932 109.739C32.375 109.223 32.5227 108.75 32.6364 108.318L33.2727 105.955C33.4318 105.348 33.6515 104.674 33.9318 103.932C34.2121 103.182 34.5947 102.466 35.0795 101.784C35.5568 101.095 36.1705 100.527 36.9205 100.08C37.6705 99.6326 38.5909 99.4091 39.6818 99.4091C40.9394 99.4091 42.0758 99.7386 43.0909 100.398C44.1061 101.049 44.9129 102.004 45.5114 103.261C46.1098 104.511 46.4091 106.03 46.4091 107.818C46.4091 109.485 46.1402 110.928 45.6023 112.148C45.0644 113.36 44.3144 114.314 43.3523 115.011C42.3902 115.701 41.2727 116.091 40 116.182V113.273C40.8788 113.197 41.6061 112.902 42.1818 112.386C42.75 111.864 43.1742 111.205 43.4545 110.409C43.7273 109.606 43.8636 108.742 43.8636 107.818C43.8636 106.742 43.6894 105.777 43.3409 104.92C42.9848 104.064 42.4924 103.386 41.8636 102.886C41.2273 102.386 40.4848 102.136 39.6364 102.136C38.8636 102.136 38.2348 102.352 37.75 102.784C37.2652 103.216 36.8712 103.784 36.5682 104.489C36.2652 105.193 36 105.955 35.7727 106.773L34.9545 109.636C34.4318 111.455 33.6856 112.894 32.7159 113.955C31.7462 115.015 30.4773 115.545 28.9091 115.545C27.6061 115.545 26.4697 115.193 25.5 114.489C24.5227 113.777 23.7652 112.822 23.2273 111.625C22.6818 110.42 22.4091 109.076 22.4091 107.591C22.4091 106.091 22.678 104.758 23.2159 103.591C23.7462 102.424 24.4735 101.5 25.3977 100.818C26.322 100.129 27.3712 99.7652 28.5455 99.7273V102.455ZM34.3636 75.1392C36.8182 75.1392 38.9394 75.5824 40.7273 76.4688C42.5152 77.3551 43.8939 78.571 44.8636 80.1165C45.8333 81.6619 46.3182 83.4271 46.3182 85.4119C46.3182 87.3968 45.8333 89.1619 44.8636 90.7074C43.8939 92.2528 42.5152 93.4687 40.7273 94.3551C38.9394 95.2415 36.8182 95.6847 34.3636 95.6847C31.9091 95.6847 29.7879 95.2415 28 94.3551C26.2121 93.4687 24.8333 92.2528 23.8636 90.7074C22.8939 89.1619 22.4091 87.3968 22.4091 85.4119C22.4091 83.4271 22.8939 81.6619 23.8636 80.1165C24.8333 78.571 26.2121 77.3551 28 76.4688C29.7879 75.5824 31.9091 75.1392 34.3636 75.1392ZM34.3636 77.8665C32.3485 77.8665 30.6477 78.2036 29.2614 78.8778C27.875 79.5445 26.8258 80.4498 26.1136 81.5938C25.4015 82.7301 25.0455 84.0028 25.0455 85.4119C25.0455 86.821 25.4015 88.0975 26.1136 89.2415C26.8258 90.3778 27.875 91.2831 29.2614 91.9574C30.6477 92.6241 32.3485 92.9574 34.3636 92.9574C36.3788 92.9574 38.0795 92.6241 39.4659 91.9574C40.8523 91.2831 41.9015 90.3778 42.6136 89.2415C43.3258 88.0975 43.6818 86.821 43.6818 85.4119C43.6818 84.0028 43.3258 82.7301 42.6136 81.5938C41.9015 80.4498 40.8523 79.5445 39.4659 78.8778C38.0795 78.2036 36.3788 77.8665 34.3636 77.8665ZM46 70.5398V73.4943L22.7273 64.9489V62.0398L46 53.4943V56.4489L26.4091 63.4034V63.5852L46 70.5398ZM36.9091 69.4489V57.5398H39.4091V69.4489H36.9091ZM46 49.8693H22.7273V42.0057C22.7273 40.1799 23.0568 38.6875 23.7159 37.5284C24.3674 36.3617 25.25 35.4981 26.3636 34.9375C27.4773 34.3769 28.7197 34.0966 30.0909 34.0966C31.4621 34.0966 32.7083 34.3769 33.8295 34.9375C34.9508 35.4905 35.8447 36.3466 36.5114 37.5057C37.1705 38.6648 37.5 40.1496 37.5 41.9602V47.5966H35V42.0511C35 40.8011 34.7841 39.7973 34.3523 39.0398C33.9205 38.2822 33.3371 37.733 32.6023 37.392C31.8598 37.0436 31.0227 36.8693 30.0909 36.8693C29.1591 36.8693 28.3258 37.0436 27.5909 37.392C26.8561 37.733 26.2803 38.286 25.8636 39.0511C25.4394 39.8163 25.2273 40.8314 25.2273 42.0966V47.0511H46V49.8693Z" fill="#FFD964"/>
</svg>
