<svg width="280" height="200" viewBox="0 0 280 200" fill="none" xmlns="http://www.w3.org/2000/svg">
<rect width="280" height="200" rx="2" fill="white"/>
<mask id="mask0_76_3676" style="mask-type:luminance" maskUnits="userSpaceOnUse" x="0" y="0" width="280" height="200">
<rect width="280" height="200" rx="2" fill="white"/>
</mask>
<g mask="url(#mask0_76_3676)">
<rect width="280" height="200" fill="#30C6E0"/>
<path fill-rule="evenodd" clip-rule="evenodd" d="M140 140C162.091 140 180 122.091 180 100C180 77.9086 162.091 60 140 60C117.909 60 100 77.9086 100 100C100 122.091 117.909 140 140 140Z" fill="#FFCD4B"/>
<path d="M160.452 57.5317L185.722 42.6655L176.852 70.6108L206.071 68.1821L185.955 89.5112L213.333 100L185.955 110.489L206.071 131.818L176.852 129.389L185.722 157.334L160.452 142.468L156.318 171.495L140 147.136L123.681 171.495L119.548 142.468L94.2769 157.334L103.147 129.389L73.9292 131.818L94.0454 110.489L66.6665 100L94.0454 89.5112L73.9292 68.1821L103.147 70.6108L94.2769 42.6655L119.548 57.5317L123.681 28.5054L140 52.8638L156.318 28.5054L160.452 57.5317ZM140 53.3335C114.226 53.3337 93.3335 74.2273 93.3335 100C93.3337 125.773 114.227 146.666 140 146.667C165.773 146.667 186.666 125.774 186.667 100C186.667 74.2272 165.773 53.3335 140 53.3335Z" fill="#FFCD4B"/>
<path d="M26.3335 173.333C26.5175 173.333 26.6663 173.483 26.6665 173.667V186.333C26.6665 186.518 26.5176 186.667 26.3335 186.667H13.6665C13.4826 186.666 13.3335 186.517 13.3335 186.333V173.667C13.3337 173.483 13.4827 173.334 13.6665 173.333H26.3335ZM39.6665 160C39.8506 160 40.0005 160.149 40.0005 160.333V173C40.0003 173.184 39.8505 173.333 39.6665 173.333H27.0005C26.8165 173.333 26.6667 173.184 26.6665 173V160.333C26.6665 160.149 26.8164 160 27.0005 160H39.6665ZM26.3335 146.667C26.5176 146.667 26.6665 146.816 26.6665 147V159.667C26.6665 159.851 26.5176 160 26.3335 160H13.6665C13.4826 160 13.3335 159.85 13.3335 159.667V147C13.3335 146.817 13.4826 146.667 13.6665 146.667H26.3335ZM39.6665 133.333C39.8505 133.333 40.0003 133.483 40.0005 133.667V146.333C40.0005 146.518 39.8506 146.667 39.6665 146.667H27.0005C26.8164 146.667 26.6665 146.518 26.6665 146.333V133.667C26.6667 133.483 26.8165 133.333 27.0005 133.333H39.6665ZM26.3335 120C26.5176 120 26.6665 120.149 26.6665 120.333V133C26.6663 133.184 26.5175 133.333 26.3335 133.333H13.6665C13.4827 133.333 13.3337 133.184 13.3335 133V120.333C13.3335 120.15 13.4826 120.001 13.6665 120H26.3335ZM39.6665 106.667C39.8506 106.667 40.0005 106.816 40.0005 107V119.667C40.0005 119.851 39.8506 120 39.6665 120H27.0005C26.8164 120 26.6665 119.851 26.6665 119.667V107C26.6665 106.816 26.8164 106.667 27.0005 106.667H39.6665ZM26.3335 93.3335C26.5175 93.3335 26.6663 93.4826 26.6665 93.6665V106.333C26.6665 106.518 26.5176 106.667 26.3335 106.667H13.6665C13.4826 106.666 13.3335 106.517 13.3335 106.333V93.6665C13.3337 93.4827 13.4827 93.3337 13.6665 93.3335H26.3335ZM39.6665 80.0005C39.8506 80.0005 40.0005 80.1494 40.0005 80.3335V93.0005C40.0003 93.1844 39.8505 93.3335 39.6665 93.3335H27.0005C26.8165 93.3335 26.6667 93.1844 26.6665 93.0005V80.3335C26.6665 80.1494 26.8164 80.0005 27.0005 80.0005H39.6665ZM26.3335 66.6665C26.5176 66.6665 26.6665 66.8164 26.6665 67.0005V79.6665C26.6665 79.8506 26.5176 80.0005 26.3335 80.0005H13.6665C13.4826 80.0003 13.3335 79.8505 13.3335 79.6665V67.0005C13.3335 66.8165 13.4826 66.6667 13.6665 66.6665H26.3335ZM39.6665 53.3335C39.8505 53.3335 40.0003 53.4826 40.0005 53.6665V66.3335C40.0005 66.5176 39.8506 66.6665 39.6665 66.6665H27.0005C26.8164 66.6665 26.6665 66.5176 26.6665 66.3335V53.6665C26.6667 53.4826 26.8165 53.3335 27.0005 53.3335H39.6665ZM26.3335 40.0005C26.5176 40.0005 26.6665 40.1494 26.6665 40.3335V53.0005C26.6663 53.1844 26.5175 53.3335 26.3335 53.3335H13.6665C13.4827 53.3333 13.3337 53.1843 13.3335 53.0005V40.3335C13.3335 40.1495 13.4826 40.0007 13.6665 40.0005H26.3335ZM39.6665 26.6665C39.8506 26.6665 40.0005 26.8164 40.0005 27.0005V39.6665C40.0005 39.8506 39.8506 40.0005 39.6665 40.0005H27.0005C26.8164 40.0005 26.6665 39.8506 26.6665 39.6665V27.0005C26.6665 26.8164 26.8164 26.6665 27.0005 26.6665H39.6665ZM26.3335 13.3335C26.5175 13.3335 26.6663 13.4826 26.6665 13.6665V26.3335C26.6665 26.5176 26.5176 26.6665 26.3335 26.6665H13.6665C13.4826 26.6663 13.3335 26.5175 13.3335 26.3335V13.6665C13.3337 13.4827 13.4827 13.3337 13.6665 13.3335H26.3335Z" fill="#FFCD4B"/>
</g>
</svg>
