<svg width="280" height="200" viewBox="0 0 280 200" fill="none" xmlns="http://www.w3.org/2000/svg">
<rect width="280" height="200" rx="2" fill="white"/>
<mask id="mask0_142_191" style="mask-type:luminance" maskUnits="userSpaceOnUse" x="0" y="0" width="280" height="200">
<rect width="280" height="200" rx="2" fill="white"/>
</mask>
<g mask="url(#mask0_142_191)">
<path d="M280 200H0V186.667H280V200ZM280 173.333H0V160H280V173.333ZM280 146.667H0V133.333H280V146.667ZM280 120H0V106.667H280V120ZM280 93.333H0V80H280V93.333ZM280 66.667H0V53.333H280V66.667ZM280 40H0V26.667H280V40ZM280 13.333H0V0H280V13.333Z" fill="#D02F44"/>
<rect width="120" height="93.3333" fill="#46467F"/>
<g filter="url(#filter0_d_142_191)">
<path d="M20.0002 66.666C23.682 66.6662 26.6663 69.6512 26.6663 73.333C26.6663 77.0148 23.682 79.9998 20.0002 80C16.3183 80 13.3333 77.0149 13.3333 73.333C13.3333 69.6511 16.3183 66.666 20.0002 66.666ZM46.6663 66.666C50.3482 66.666 53.3333 69.6511 53.3333 73.333C53.3333 77.0149 50.3482 80 46.6663 80C42.9845 79.9998 40.0002 77.0148 40.0002 73.333C40.0002 69.6512 42.9845 66.6662 46.6663 66.666ZM73.3333 66.666C77.0151 66.666 80.0002 69.6511 80.0002 73.333C80.0002 77.0149 77.0152 80 73.3333 80C69.6514 80 66.6663 77.0149 66.6663 73.333C66.6663 69.6511 69.6514 66.666 73.3333 66.666ZM100 66.666C103.682 66.6662 106.666 69.6512 106.666 73.333C106.666 77.0148 103.682 79.9998 100 80C96.3183 80 93.3333 77.0149 93.3333 73.333C93.3333 69.6511 96.3183 66.666 100 66.666ZM33.3333 53.333C37.0152 53.333 40.0002 56.3181 40.0002 60C40.0001 63.6817 37.015 66.666 33.3333 66.666C29.6515 66.666 26.6664 63.6817 26.6663 60C26.6663 56.3181 29.6514 53.333 33.3333 53.333ZM60.0002 53.333C63.682 53.3332 66.6663 56.3182 66.6663 60C66.6661 63.6816 63.6819 66.6658 60.0002 66.666C56.3185 66.666 53.3334 63.6817 53.3333 60C53.3333 56.3181 56.3183 53.333 60.0002 53.333ZM86.6663 53.333C90.3482 53.333 93.3333 56.3181 93.3333 60C93.3331 63.6817 90.3481 66.666 86.6663 66.666C82.9846 66.6658 80.0004 63.6816 80.0002 60C80.0002 56.3182 82.9845 53.3332 86.6663 53.333ZM20.0002 40C23.6819 40.0002 26.6661 42.9844 26.6663 46.666C26.6663 50.3478 23.682 53.3328 20.0002 53.333C16.3183 53.333 13.3333 50.3479 13.3333 46.666C13.3334 42.9843 16.3185 40 20.0002 40ZM46.6663 40C50.348 40 53.3331 42.9843 53.3333 46.666C53.3333 50.3479 50.3482 53.333 46.6663 53.333C42.9845 53.3328 40.0002 50.3478 40.0002 46.666C40.0004 42.9844 42.9846 40.0002 46.6663 40ZM73.3333 40C77.015 40 80.0001 42.9843 80.0002 46.666C80.0002 50.3479 77.0152 53.333 73.3333 53.333C69.6514 53.333 66.6663 50.3479 66.6663 46.666C66.6664 42.9843 69.6515 40 73.3333 40ZM100 40C103.682 40.0002 106.666 42.9844 106.666 46.666C106.666 50.3478 103.682 53.3328 100 53.333C96.3183 53.333 93.3333 50.3479 93.3333 46.666C93.3334 42.9843 96.3185 40 100 40ZM33.3333 26.666C37.0152 26.666 40.0002 29.6511 40.0002 33.333C40.0002 37.0149 37.0152 40 33.3333 40C29.6514 40 26.6663 37.0149 26.6663 33.333C26.6663 29.6511 29.6514 26.666 33.3333 26.666ZM60.0002 26.666C63.682 26.6662 66.6663 29.6512 66.6663 33.333C66.6663 37.0148 63.682 39.9998 60.0002 40C56.3183 40 53.3333 37.0149 53.3333 33.333C53.3333 29.6511 56.3183 26.666 60.0002 26.666ZM86.6663 26.666C90.3482 26.666 93.3333 29.6511 93.3333 33.333C93.3333 37.0149 90.3482 40 86.6663 40C82.9845 39.9998 80.0002 37.0148 80.0002 33.333C80.0002 29.6512 82.9845 26.6662 86.6663 26.666ZM20.0002 13.333C23.682 13.3332 26.6663 16.3182 26.6663 20C26.6661 23.6816 23.6819 26.6658 20.0002 26.666C16.3185 26.666 13.3334 23.6817 13.3333 20C13.3333 16.3181 16.3183 13.333 20.0002 13.333ZM46.6663 13.333C50.3482 13.333 53.3333 16.3181 53.3333 20C53.3331 23.6817 50.348 26.666 46.6663 26.666C42.9846 26.6658 40.0004 23.6816 40.0002 20C40.0002 16.3182 42.9845 13.3332 46.6663 13.333ZM73.3333 13.333C77.0152 13.333 80.0002 16.3181 80.0002 20C80.0001 23.6817 77.015 26.666 73.3333 26.666C69.6515 26.666 66.6664 23.6817 66.6663 20C66.6663 16.3181 69.6514 13.333 73.3333 13.333ZM100 13.333C103.682 13.3332 106.666 16.3182 106.666 20C106.666 23.6816 103.682 26.6658 100 26.666C96.3185 26.666 93.3334 23.6817 93.3333 20C93.3333 16.3181 96.3183 13.333 100 13.333Z" fill="url(#paint0_linear_142_191)"/>
</g>
</g>
<defs>
<filter id="filter0_d_142_191" x="13.3333" y="13.333" width="93.333" height="67.667" filterUnits="userSpaceOnUse" color-interpolation-filters="sRGB">
<feFlood flood-opacity="0" result="BackgroundImageFix"/>
<feColorMatrix in="SourceAlpha" type="matrix" values="0 0 0 0 0 0 0 0 0 0 0 0 0 0 0 0 0 0 127 0" result="hardAlpha"/>
<feOffset dy="1"/>
<feColorMatrix type="matrix" values="0 0 0 0 0 0 0 0 0 0 0 0 0 0 0 0 0 0 0.06 0"/>
<feBlend mode="normal" in2="BackgroundImageFix" result="effect1_dropShadow_142_191"/>
<feBlend mode="normal" in="SourceGraphic" in2="effect1_dropShadow_142_191" result="shape"/>
</filter>
<linearGradient id="paint0_linear_142_191" x1="13.3333" y1="13.333" x2="13.3333" y2="80" gradientUnits="userSpaceOnUse">
<stop stop-color="white"/>
<stop offset="1" stop-color="#F0F0F0"/>
</linearGradient>
</defs>
</svg>
