<svg width="280" height="200" viewBox="0 0 280 200" fill="none" xmlns="http://www.w3.org/2000/svg">
<rect x="0.25" y="0.25" width="279.5" height="199.5" rx="1.75" fill="white" stroke="#F5F5F5" stroke-width="0.5"/>
<mask id="mask0_142_86" style="mask-type:luminance" maskUnits="userSpaceOnUse" x="0" y="0" width="280" height="200">
<rect x="0.25" y="0.25" width="279.5" height="199.5" rx="1.75" fill="white" stroke="white" stroke-width="0.5"/>
</mask>
<g mask="url(#mask0_142_86)">
<path fill-rule="evenodd" clip-rule="evenodd" d="M0 66.6667H280V0H0V66.6667Z" fill="#04AAC8"/>
<path fill-rule="evenodd" clip-rule="evenodd" d="M0 200H280V133.333H0V200Z" fill="#23C840"/>
<path d="M46.6666 13.333C50.7796 13.333 54.6022 14.5753 57.7809 16.7041C57.4126 16.6798 57.0411 16.666 56.6666 16.666C47.4619 16.666 39.9996 24.1283 39.9996 33.333C39.9996 42.5378 47.4619 50 56.6666 50C57.0411 50 57.4126 49.9853 57.7809 49.9609C54.6021 52.0899 50.7798 53.333 46.6666 53.333C35.6209 53.333 26.6666 44.3787 26.6666 33.333C26.6666 22.2873 35.6209 13.333 46.6666 13.333ZM73.3336 40C77.0153 40.0002 79.9995 42.9844 79.9996 46.666C79.9996 50.3478 77.0154 53.3328 73.3336 53.333C69.6517 53.333 66.6666 50.3479 66.6666 46.666C66.6668 42.9843 69.6518 40 73.3336 40ZM99.9996 40C103.681 40 106.666 42.9843 106.667 46.666C106.667 50.3479 103.682 53.333 99.9996 53.333C96.3179 53.3328 93.3336 50.3478 93.3336 46.666C93.3338 42.9844 96.318 40.0002 99.9996 40ZM126.667 40C130.348 40 133.333 42.9843 133.334 46.666C133.334 50.3479 130.349 53.333 126.667 53.333C122.985 53.333 120 50.3479 120 46.666C120 42.9843 122.985 40 126.667 40ZM99.9996 13.333C103.682 13.333 106.667 16.3181 106.667 20C106.666 23.6817 103.681 26.666 99.9996 26.666C96.318 26.6658 93.3338 23.6816 93.3336 20C93.3336 16.3182 96.3179 13.3332 99.9996 13.333ZM126.667 13.333C130.349 13.333 133.334 16.3181 133.334 20C133.333 23.6817 130.348 26.666 126.667 26.666C122.985 26.666 120 23.6817 120 20C120 16.3181 122.985 13.333 126.667 13.333Z" fill="white"/>
</g>
</svg>
